<?xml version="1.0" encoding="utf-8"?><svg version="1.1" id="Layer_1" xmlns="http://www.w3.org/2000/svg" xmlns:xlink="http://www.w3.org/1999/xlink" x="0px" y="0px" viewBox="0 0 122.88 114.42" style="enable-background:new 0 0 122.88 114.42" xml:space="preserve"><style type="text/css"><![CDATA[
	.st0{fill-rule:evenodd;clip-rule:evenodd;fill:#EE4856;}
	.st1{fill-rule:evenodd;clip-rule:evenodd;fill:#FFFFFF;}
]]></style><g><path class="st0" d="M9.32,0h104.24c5.13,0,9.32,4.2,9.32,9.32v73.62c0,5.11-4.21,9.32-9.32,9.32H83.84l-16.17,19.06 c-3.58,4.23-9.45,4.04-12.81,0L39.04,92.26H9.32C4.21,92.26,0,88.07,0,82.94V9.32C0,4.19,4.19,0,9.32,0L9.32,0z"/><path class="st1" d="M61.2,30.42c3.53-3.68,6-6.17,11.43-6.79c10.2-1.17,20.27,9.27,15.12,19.56c-1.9,3.79-8.49,10.16-13.76,15.15 c-2.01,1.9-3.83,3.61-5.12,4.89l-7.66,7.6l-6.33-6.09c-1.91-1.83-4.16-3.79-6.46-5.87C41.5,52.64,34.05,45.3,33.74,36.73 c-0.29-8.01,6.72-13.15,14-13.06C54.2,23.76,56.92,26.25,61.2,30.42L61.2,30.42z"/></g></svg>