<svg xmlns="http://www.w3.org/2000/svg" width="33" height="33" viewBox="0 0 33 33">
  <path id="Icon_material-person" data-name="Icon material-person" d="M38.5,38.5H5.5V32.657a4.633,4.633,0,0,1,1.935-3.674,13.016,13.016,0,0,1,4.419-2.129,38.675,38.675,0,0,1,20.292,0,13.016,13.016,0,0,1,4.419,2.129A4.633,4.633,0,0,1,38.5,32.657Zm-32-1h31V32.657a3.637,3.637,0,0,0-1.563-2.9,12.053,12.053,0,0,0-4.078-1.949,37.685,37.685,0,0,0-19.718,0,12.053,12.053,0,0,0-4.078,1.949,3.637,3.637,0,0,0-1.563,2.9ZM22,24.809a6.176,6.176,0,0,1-3.387-1.07A10.1,10.1,0,0,1,15.936,21.1,12.788,12.788,0,0,1,13.5,14a8.5,8.5,0,1,1,17,0,12.788,12.788,0,0,1-2.436,7.1,10.1,10.1,0,0,1-2.677,2.637A6.176,6.176,0,0,1,22,24.809ZM22,6.5A7.508,7.508,0,0,0,14.5,14a11.926,11.926,0,0,0,2.249,6.521c.878,1.228,2.727,3.288,5.251,3.288s4.373-2.06,5.251-3.288A11.926,11.926,0,0,0,29.5,14,7.508,7.508,0,0,0,22,6.5Z" transform="translate(-5.5 -5.5)" fill="#fff"/>
</svg>
